if (_typeface_js && _typeface_js.loadFace) _typeface_js.loadFace({"glyphs":{"S":{"x_min":59.796875,"x_max":748.453125,"ha":809,"o":"m 711 857 l 711 605 l 556 687 l 439 706 l 352 662 l 462 590 l 593 537 l 703 447 l 748 294 l 697 126 l 564 23 l 377 -11 l 229 9 l 59 86 l 59 349 l 219 254 l 372 219 l 470 275 l 334 363 l 142 464 l 74 648 l 120 811 l 244 906 l 424 937 l 560 922 l 711 857 "},"a":{"x_min":35.6875,"x_max":728.203125,"ha":809,"o":"m 496 0 l 496 17 l 373 -11 l 197 34 l 79 160 l 35 347 l 76 534 l 189 659 l 361 706 l 496 673 l 496 694 l 728 694 l 728 0 l 496 0 m 496 466 l 404 493 l 267 347 l 404 200 l 496 227 l 496 466 "},"T":{"x_min":16.390625,"x_max":791.859375,"ha":809,"o":"m 265 0 l 265 694 l 16 694 l 16 925 l 791 925 l 791 694 l 543 694 l 543 0 l 265 0 "},"N":{"x_min":68.46875,"x_max":1029.125,"ha":1100,"o":"m 633 128 l 534 257 l 434 385 l 334 515 l 334 0 l 68 0 l 68 925 l 363 925 l 462 796 l 563 668 l 662 539 l 762 410 l 762 925 l 1029 925 l 1029 0 l 733 0 l 633 128 "},"K":{"x_min":74.265625,"x_max":1023.34375,"ha":1042,"o":"m 74 925 l 352 925 l 352 0 l 74 0 l 74 925 m 673 0 l 363 491 l 626 925 l 965 925 l 679 500 l 1023 0 l 673 0 "},"d":{"x_min":35.6875,"x_max":728.203125,"ha":809,"o":"m 496 0 l 496 21 l 361 -11 l 189 34 l 76 160 l 35 347 l 79 534 l 197 659 l 373 706 l 496 677 l 496 925 l 728 925 l 728 0 l 496 0 m 496 466 l 404 493 l 267 347 l 404 200 l 496 227 l 496 466 "},"Y":{"x_min":2.890625,"x_max":980.90625,"ha":984,"o":"m 353 0 l 353 434 l 2 925 l 350 925 l 423 803 l 497 681 l 645 925 l 980 925 l 630 434 l 630 0 l 353 0 "},"E":{"x_min":74.265625,"x_max":745.5625,"ha":809,"o":"m 352 578 l 687 578 l 687 356 l 352 356 l 352 231 l 745 231 l 745 0 l 74 0 l 74 925 l 745 925 l 745 694 l 352 694 l 352 578 "},"j":{"x_min":-28.9375,"x_max":341.4375,"ha":405,"o":"m 202 671 l 63 810 l 202 949 l 341 810 l 202 671 m 279 -217 l 164 -323 l -28 -358 l -28 -140 l 86 -21 l 86 578 l 318 578 l 318 -40 l 279 -217 "},"y":{"x_min":10.609375,"x_max":739.765625,"ha":752,"o":"m 256 0 l 133 347 l 72 520 l 10 694 l 257 694 l 316 499 l 375 305 l 434 499 l 492 694 l 739 694 l 616 347 l 555 173 l 493 0 l 419 -231 l 182 -231 l 256 0 "},"Z":{"x_min":45.328125,"x_max":820.796875,"ha":867,"o":"m 506 347 l 402 231 l 820 231 l 820 0 l 45 0 l 45 231 l 149 347 l 254 462 l 358 578 l 463 694 l 45 694 l 45 925 l 820 925 l 820 694 l 715 578 l 611 462 l 506 347 "},"u":{"x_min":62.6875,"x_max":728.203125,"ha":809,"o":"m 496 0 l 496 21 l 361 -11 l 191 27 l 94 138 l 62 306 l 62 694 l 294 694 l 294 329 l 409 210 l 496 235 l 496 694 l 728 694 l 728 0 l 496 0 "},"k":{"x_min":108.984375,"x_max":852.625,"ha":867,"o":"m 108 0 l 108 925 l 340 925 l 340 463 l 555 694 l 839 694 l 559 404 l 656 269 l 755 135 l 852 0 l 563 0 l 393 233 l 340 177 l 340 0 l 108 0 "},"g":{"x_min":35.6875,"x_max":728.203125,"ha":809,"o":"m 681 -81 l 557 -193 l 379 -232 l 174 -186 l 174 10 l 350 -39 l 495 78 l 361 46 l 189 84 l 76 196 l 35 376 l 79 555 l 197 667 l 373 706 l 496 677 l 496 694 l 728 694 l 728 97 l 681 -81 m 496 263 l 496 489 l 404 513 l 267 376 l 404 239 l 496 263 "},"t":{"x_min":33.75,"x_max":427.265625,"ha":463,"o":"m 427 -11 l 233 24 l 118 130 l 80 306 l 80 424 l 33 424 l 33 617 l 80 617 l 80 810 l 311 810 l 311 617 l 427 617 l 427 424 l 311 424 l 311 326 l 427 206 l 427 -11 "},"e":{"x_min":35.6875,"x_max":772.5625,"ha":809,"o":"m 442 190 l 647 260 l 647 54 l 413 -11 l 214 34 l 82 160 l 35 347 l 84 534 l 216 659 l 404 706 l 549 679 l 666 600 l 744 470 l 772 289 l 283 289 l 442 190 m 275 443 l 517 443 l 404 542 l 275 443 "},"J":{"x_min":-5.78125,"x_max":619.21875,"ha":694,"o":"m 578 166 l 461 35 l 272 -11 l 119 9 l -5 72 l -5 371 l 205 264 l 341 392 l 341 925 l 619 925 l 619 363 l 578 166 "},"W":{"x_min":-23.140625,"x_max":1412.03125,"ha":1389,"o":"m 694 535 l 543 0 l 266 0 l -23 925 l 254 925 l 405 390 l 555 925 l 833 925 l 983 390 l 1134 925 l 1412 925 l 1122 0 l 844 0 l 694 535 "},"v":{"x_min":10.609375,"x_max":739.765625,"ha":752,"o":"m 72 520 l 10 694 l 257 694 l 316 499 l 375 305 l 434 499 l 492 694 l 739 694 l 616 347 l 555 173 l 493 0 l 256 0 l 133 347 l 72 520 "},"s":{"x_min":62.6875,"x_max":635.609375,"ha":694,"o":"m 600 424 l 377 441 l 546 373 l 635 219 l 555 48 l 334 -10 l 207 5 l 62 63 l 63 290 l 207 217 l 404 222 l 321 271 l 145 348 l 75 486 l 148 650 l 358 703 l 600 642 l 600 424 "},"B":{"x_min":74.265625,"x_max":884.453125,"ha":925,"o":"m 664 893 l 784 803 l 826 670 l 732 491 l 842 400 l 884 270 l 840 129 l 714 34 l 524 0 l 74 0 l 74 925 l 481 925 l 664 893 m 548 646 l 471 713 l 352 713 l 352 578 l 471 578 l 548 646 m 606 294 l 515 376 l 352 376 l 352 212 l 515 212 l 606 294 "},"H":{"x_min":74.265625,"x_max":965.46875,"ha":1042,"o":"m 676 338 l 363 338 l 363 0 l 74 0 l 74 925 l 363 925 l 363 598 l 676 598 l 676 925 l 965 925 l 965 0 l 676 0 l 676 338 "},"c":{"x_min":35.6875,"x_max":589.3125,"ha":637,"o":"m 589 414 l 413 484 l 267 347 l 413 210 l 589 279 l 589 54 l 384 -11 l 206 34 l 81 160 l 35 347 l 81 534 l 206 659 l 384 706 l 589 640 l 589 414 "},"q":{"x_min":35.6875,"x_max":728.203125,"ha":809,"o":"m 496 -231 l 496 17 l 373 -11 l 197 34 l 79 160 l 35 347 l 76 534 l 189 659 l 361 706 l 496 673 l 496 694 l 728 694 l 728 -231 l 496 -231 m 496 466 l 404 493 l 267 347 l 404 200 l 496 227 l 496 466 "},"b":{"x_min":80.046875,"x_max":772.5625,"ha":809,"o":"m 729 534 l 772 347 l 732 160 l 619 34 l 446 -11 l 311 21 l 311 0 l 80 0 l 80 925 l 311 925 l 311 677 l 434 706 l 610 659 l 729 534 m 404 493 l 311 466 l 311 227 l 404 200 l 541 347 l 404 493 "},"D":{"x_min":74.265625,"x_max":977.046875,"ha":995,"o":"m 669 892 l 829 796 l 937 651 l 977 462 l 937 274 l 829 128 l 669 33 l 473 0 l 74 0 l 74 925 l 473 925 l 669 892 m 473 250 l 616 306 l 676 462 l 616 619 l 473 675 l 352 675 l 352 250 l 473 250 "},"I":{"x_min":91.625,"x_max":369.40625,"ha":463,"o":"m 91 925 l 369 925 l 369 0 l 91 0 l 91 925 "},"G":{"x_min":16.390625,"x_max":878.65625,"ha":925,"o":"m 878 864 l 878 585 l 729 652 l 566 677 l 382 621 l 317 461 l 382 293 l 556 229 l 647 236 l 647 337 l 519 337 l 519 540 l 878 540 l 878 82 l 705 11 l 527 -11 l 326 24 l 163 122 l 55 272 l 16 462 l 38 609 l 104 738 l 212 842 l 361 912 l 548 937 l 706 924 l 878 864 "},"z":{"x_min":56.90625,"x_max":635.609375,"ha":694,"o":"m 635 212 l 635 0 l 56 0 l 56 212 l 338 482 l 56 482 l 56 694 l 635 694 l 635 482 l 354 212 l 635 212 "},"U":{"x_min":68.46875,"x_max":913.390625,"ha":984,"o":"m 879 230 l 788 99 l 653 17 l 490 -11 l 326 17 l 192 99 l 102 230 l 68 405 l 68 925 l 357 925 l 357 405 l 490 243 l 624 405 l 624 925 l 913 925 l 913 405 l 879 230 "},"w":{"x_min":10.609375,"x_max":1086.03125,"ha":1099,"o":"m 548 395 l 423 0 l 224 0 l 170 173 l 117 347 l 63 520 l 10 694 l 252 694 l 297 519 l 342 345 l 456 694 l 640 694 l 754 345 l 798 519 l 843 694 l 1086 694 l 1032 520 l 978 347 l 924 173 l 871 0 l 673 0 l 610 197 l 548 395 "},"F":{"x_min":74.265625,"x_max":745.5625,"ha":752,"o":"m 352 559 l 687 559 l 687 337 l 352 337 l 352 0 l 74 0 l 74 925 l 745 925 l 745 694 l 352 694 l 352 559 "},"r":{"x_min":80.046875,"x_max":573.875,"ha":579,"o":"m 573 424 l 405 474 l 311 448 l 311 0 l 80 0 l 80 694 l 311 694 l 311 671 l 438 706 l 573 659 l 573 424 "},"x":{"x_min":10.609375,"x_max":797.640625,"ha":809,"o":"m 253 353 l 135 523 l 19 694 l 320 694 l 404 514 l 488 694 l 788 694 l 554 353 l 797 0 l 496 0 l 404 192 l 311 0 l 10 0 l 253 353 "},"V":{"x_min":10.609375,"x_max":1029.125,"ha":1042,"o":"m 10 925 l 317 925 l 384 736 l 452 546 l 519 357 l 587 546 l 654 736 l 722 925 l 1029 925 l 670 0 l 369 0 l 10 925 "},"Q":{"x_min":16.390625,"x_max":1023.34375,"ha":1042,"o":"m 913 162 l 1023 0 l 742 0 l 724 27 l 519 -11 l 324 24 l 163 122 l 55 272 l 16 462 l 55 652 l 163 802 l 324 901 l 519 937 l 715 901 l 875 802 l 983 652 l 1023 462 l 994 299 l 913 162 m 693 347 l 722 462 l 662 618 l 519 677 l 376 618 l 317 462 l 376 307 l 519 248 l 570 254 l 508 347 l 693 347 "},"h":{"x_min":80.046875,"x_max":745.5625,"ha":809,"o":"m 713 555 l 745 387 l 745 0 l 514 0 l 514 364 l 398 484 l 311 459 l 311 0 l 80 0 l 80 925 l 311 925 l 311 673 l 446 706 l 616 666 l 713 555 "},"M":{"x_min":75.234375,"x_max":1157.40625,"ha":1235,"o":"m 879 524 l 781 378 l 683 231 l 542 231 l 341 523 l 341 0 l 75 0 l 75 925 l 384 925 l 500 761 l 617 598 l 729 761 l 842 925 l 1157 925 l 1157 0 l 879 0 l 879 524 "},"C":{"x_min":16.390625,"x_max":820.796875,"ha":867,"o":"m 820 864 l 820 566 l 684 650 l 537 677 l 380 620 l 317 462 l 380 305 l 537 248 l 684 275 l 820 359 l 820 61 l 683 5 l 496 -11 l 309 24 l 156 122 l 54 272 l 16 462 l 54 652 l 156 802 l 309 901 l 496 937 l 683 916 l 820 864 "},"f":{"x_min":33.75,"x_max":427.265625,"ha":463,"o":"m 427 617 l 427 424 l 311 424 l 311 0 l 80 0 l 80 424 l 33 424 l 33 617 l 80 617 l 80 619 l 118 795 l 233 901 l 427 937 l 427 719 l 312 617 l 427 617 "},"L":{"x_min":74.265625,"x_max":745.5625,"ha":752,"o":"m 745 0 l 74 0 l 74 925 l 352 925 l 352 260 l 745 260 l 745 0 "},"i":{"x_min":62.6875,"x_max":340.46875,"ha":405,"o":"m 201 671 l 62 810 l 201 949 l 340 810 l 201 671 m 317 578 l 317 0 l 85 0 l 85 578 l 317 578 "},"A":{"x_min":10.609375,"x_max":1029.125,"ha":1042,"o":"m 369 925 l 670 925 l 1029 0 l 751 0 l 689 173 l 350 173 l 288 0 l 10 0 l 369 925 m 608 405 l 519 688 l 431 405 l 608 405 "},"n":{"x_min":80.046875,"x_max":745.5625,"ha":809,"o":"m 713 555 l 745 387 l 745 0 l 514 0 l 514 364 l 398 484 l 311 459 l 311 0 l 80 0 l 80 694 l 311 694 l 311 673 l 446 706 l 616 666 l 713 555 "},"O":{"x_min":16.390625,"x_max":1023.34375,"ha":1042,"o":"m 875 802 l 983 652 l 1023 462 l 983 272 l 875 122 l 715 24 l 519 -11 l 324 24 l 163 122 l 55 272 l 16 462 l 55 652 l 163 802 l 324 901 l 519 937 l 715 901 l 875 802 m 317 462 l 376 307 l 519 248 l 662 307 l 722 462 l 662 618 l 519 677 l 376 618 l 317 462 "}," ":{"x_min":0,"x_max":0,"ha":289},"X":{"x_min":2.890625,"x_max":1038.78125,"ha":1042,"o":"m 691 0 l 603 141 l 516 284 l 338 0 l 2 0 l 350 479 l 31 925 l 379 925 l 452 803 l 525 681 l 599 803 l 674 925 l 1009 925 l 691 487 l 1038 0 l 691 0 "},"P":{"x_min":74.265625,"x_max":849.734375,"ha":867,"o":"m 671 879 l 800 756 l 849 583 l 800 410 l 671 287 l 489 241 l 352 241 l 352 0 l 74 0 l 74 925 l 489 925 l 671 879 m 566 583 l 455 694 l 352 694 l 352 472 l 455 472 l 566 583 "},"m":{"x_min":80.046875,"x_max":1208.53125,"ha":1273,"o":"m 1176 555 l 1208 387 l 1208 0 l 977 0 l 977 364 l 861 484 l 760 387 l 760 0 l 528 0 l 528 364 l 412 484 l 311 449 l 311 0 l 80 0 l 80 694 l 311 694 l 311 665 l 461 706 l 682 625 l 909 706 l 1079 666 l 1176 555 "},"l":{"x_min":86.796875,"x_max":434.03125,"ha":463,"o":"m 434 206 l 434 -11 l 240 24 l 125 130 l 86 306 l 86 925 l 318 925 l 318 326 l 434 206 "},"p":{"x_min":80.046875,"x_max":772.5625,"ha":809,"o":"m 729 534 l 772 347 l 732 160 l 619 34 l 446 -11 l 311 21 l 311 -231 l 80 -231 l 80 694 l 311 694 l 311 677 l 434 706 l 610 659 l 729 534 m 404 493 l 311 466 l 311 227 l 404 200 l 541 347 l 404 493 "},"R":{"x_min":74.265625,"x_max":905.671875,"ha":925,"o":"m 671 879 l 800 756 l 849 583 l 812 431 l 710 313 l 905 0 l 587 0 l 512 120 l 437 241 l 352 241 l 352 0 l 74 0 l 74 925 l 489 925 l 671 879 m 566 583 l 455 694 l 352 694 l 352 472 l 455 472 l 566 583 "},"o":{"x_min":35.6875,"x_max":772.5625,"ha":809,"o":"m 723 534 l 772 347 l 723 160 l 592 34 l 404 -11 l 216 34 l 84 160 l 35 347 l 84 534 l 216 659 l 404 706 l 592 659 l 723 534 m 404 200 l 541 347 l 404 493 l 267 347 l 404 200 "}}}
